<?xml version="1.0" encoding="UTF-8" standalone="no"?>
<!-- Created with Inkscape (http://www.inkscape.org/) -->

<svg
   version="1.1"
   id="svg1"
   width="199.94839"
   height="271.92615"
   viewBox="0 0 199.94839 271.92615"
   sodipodi:docname="Among Us crewmate.svg"
   inkscape:export-filename="Among Us crewmate.svg"
   inkscape:export-xdpi="300"
   inkscape:export-ydpi="300"
   inkscape:version="1.3 (0e150ed6c4, 2023-07-21)"
   xmlns:inkscape="http://www.inkscape.org/namespaces/inkscape"
   xmlns:sodipodi="http://sodipodi.sourceforge.net/DTD/sodipodi-0.dtd"
   xmlns="http://www.w3.org/2000/svg"
   xmlns:svg="http://www.w3.org/2000/svg">
  <defs
     id="defs1" />
  <sodipodi:namedview
     id="namedview1"
     pagecolor="#ffffff"
     bordercolor="#666666"
     borderopacity="1.0"
     inkscape:showpageshadow="2"
     inkscape:pageopacity="0.0"
     inkscape:pagecheckerboard="0"
     inkscape:deskcolor="#d1d1d1"
     inkscape:zoom="2.0019849"
     inkscape:cx="-66.933572"
     inkscape:cy="153.34781"
     inkscape:window-width="1920"
     inkscape:window-height="1080"
     inkscape:window-x="0"
     inkscape:window-y="0"
     inkscape:window-maximized="1"
     inkscape:current-layer="g1" />
  <g
     inkscape:groupmode="layer"
     inkscape:label="Image"
     id="g1"
     transform="translate(-85.0738,-54.552668)">
    <g
       id="g2">
      <path
         style="fill:#c9e7ec"
         d="m 85.078947,217.41667 c 0.04798,-1.16495 0.284941,-1.4019 0.604167,-0.60417 0.288871,0.72187 0.253344,1.58437 -0.07895,1.91667 -0.332292,0.33229 -0.568641,-0.25834 -0.52522,-1.3125 z m 121.267743,-65.4409 c -8.5702,-1.54911 -16.03343,-4.86734 -20.94133,-9.31074 -5.15678,-4.66874 -9.76217,-7.08844 -9.87778,-19.51026 -0.0575,-6.17841 1.13831,-11.48122 4.91164,-15.07073 5.74625,-5.46627 13.89292,-6.14794 35.41398,-7.79471 25.5936,-1.958396 36.54501,-1.875506 44.0245,0.45237 12.07027,3.75669 19.12675,12.10392 19.12675,21.84607 0,6.33699 -8.61682,12.10975 -13.72543,16.37092 -4.9577,4.13531 -16.14712,9.41957 -24.27902,11.4659 -7.80804,1.96483 -27.49057,2.84587 -34.65331,1.55118 z m 26.33095,-26.04234 c 13.84203,-1.88734 23.0791,-7.78241 20.30791,-12.96043 -1.54831,-2.89304 -8.14269,-5.63079 -15.48555,-6.42905 -8.68354,-0.94401 -23.01747,0.93876 -28.47484,3.7402 -4.28063,2.19738 -4.5415,2.57358 -4.82761,6.96196 -0.26413,4.05142 0.024,4.85298 2.27505,6.3279 5.18773,3.39913 13.25351,4.12535 26.20504,2.35942 z"
         id="path6"
         sodipodi:nodetypes="ssssssssssssssssssssss" />
      <path
         style="fill:#71969c"
         d="m 85.078947,214.41667 c 0.04798,-1.16495 0.284941,-1.4019 0.604167,-0.60417 0.288871,0.72187 0.253344,1.58437 -0.07895,1.91667 -0.332292,0.33229 -0.568641,-0.25834 -0.52522,-1.3125 z M 196.5,169.06573 c -10.44605,-2.54028 -19.89118,-10.02273 -24.44878,-19.36837 -3.93995,-8.07911 -6.04251,-23.44158 -4.09804,-29.94259 2.83744,-9.48653 4.31387,-12.02686 20.63537,-14.76531 l 7.47339,-1.2539 -4.88198,2.86328 c -2.18798,1.28325 -6.43178,3.62337 -8.4017,5.49731 l -4.08166,3.8828 0.62349,10.23427 c 0.6956,11.41771 1.4529,13.05131 8.58929,18.52819 7.25405,5.56718 16.41559,7.76422 32.09062,7.69572 15.39099,-0.0673 23.36711,-1.67769 34.5,-6.96574 8.75304,-4.15764 14.57803,-9.10043 16.96635,-14.39677 1.01563,-2.25226 1.97211,-3.96949 2.12553,-3.81607 0.80859,0.80859 -1.35444,15.12334 -3.00433,18.96033 -2.99288,6.96025 -10.81113,14.30841 -18.12472,17.79886 -5.78164,2.75932 -8.02572,3.17703 -24.16813,4.49857 -19.1269,1.56589 -27.05172,1.70283 -31.7947,0.54942 z"
         id="path5"
         sodipodi:nodetypes="sssssccsssscsscssssssssss" />
      <path
         style="fill:#d70318"
         d="m 174.32418,250.56051 c -13.74923,-4.29913 -25.68844,-14.46238 -31.42241,-35.44129 -2.10137,-7.68829 -2.21383,-76.28775 -0.87616,-88.24089 2.09624,-18.73153 9.08166,-35.643812 19.1819,-46.441001 7.70009,-8.231429 15.59109,-14.989986 26.32066,-16.374456 16.00096,-2.064654 30.15914,0.450791 41.73233,7.810775 5.41457,3.443405 18.21472,15.869697 17.39072,16.693697 -0.24657,0.246564 -16.0579,3.456346 -31.68276,4.542695 -77.40693,5.381865 -73.45671,85.46297 2.10216,82.52891 27.58649,-1.07122 33.31633,-3.03901 40.7872,-8.35874 1.6604,-1.1823 9.65925,-3.63295 10.00478,-3.28741 0.34553,0.34553 0.57922,15.50899 0.51929,23.33596 -0.0833,10.87703 1.16897,17.88224 -0.41396,23.99686 -4.76174,18.3939 -18.80788,29.89683 -31.20331,35.69734 -6.23511,2.91776 -6.84731,2.99902 -29.81522,3.95732 -28.38054,1.18414 -27.45771,1.19601 -32.62522,-0.41977 z M 95.273387,167.13498 c -1.987439,-1.98744 0.715112,-16.5172 2.616173,-21.00874 2.49019,-5.88343 7.03247,-10.76091 15.65511,-7.21729 L 123,142.79477 V 155.39738 168 h -10.42857 c -8.14719,0 -16.070383,0.36264 -17.298043,-0.86502 z"
         id="path4"
         sodipodi:nodetypes="ssssssssssssssssssscccss" />
      <path
         style="fill:#89051b"
         d="m 154.7649,316.27713 c -8.79236,-2.12678 -19.06477,-9.34051 -20.82632,-15.68373 -0.69301,-2.49547 1.07656,-34.99548 1.08436,-93.5934 0.013,-97.26982 -0.0772,-95.66877 6.11323,-108.599221 C 145.6192,89.036666 157.88382,76.683473 167,72.350158 c 9.10286,-4.32698 12.65217,-5.092706 5.70533,-1.230865 -12.0376,6.691872 -22.11167,20.900323 -27.15282,38.296267 -4.25132,14.67041 -4.63558,22.39931 -3.08667,62.08444 1.40478,35.99215 1.85192,39.82441 6.00517,51.46723 3.5451,9.938 11.47009,20.18149 18.97147,24.52169 7.53697,4.3608 10.61937,4.65028 37.72911,3.54335 24.90667,-1.01698 25.30719,-1.0678 31.59267,-4.00913 12.26483,-5.73942 22.57668,-20.16025 27.18905,-38.02314 l 2.46637,-8.07395 -0.4921,9.57395 c -0.84266,16.39401 -1.34288,19.22494 -5.33715,27.50463 L 258,243.37431 v 30.31284 c 0,28.70581 -0.10323,30.41608 -1.94725,32.2601 -7.11052,7.11052 -28.64825,3.68747 -35.80979,-5.69136 -2.59272,-3.39545 -2.76112,-4.26764 -3.07452,-15.92405 L 216.83689,272 H 196.41844 176 v 17.04966 c 0,13.00022 0.71247,18.33905 -0.40197,20.49415 -2.53462,4.9014 -12.30758,8.79556 -20.83313,6.73332 z m -48.71166,-50.69098 c -5.29395,-8.56579 -7.975549,-26.22606 -8.746404,-57.60138 -0.654031,-26.62034 -0.898972,-46.73459 0.818401,-43.59299 1.716924,3.14079 3.888433,3.57687 14.624763,3.59291 L 123,168 v 50.5 50.5 h -7.41844 c -7.36387,0 -7.43396,-0.0251 -9.52832,-3.41385 z m 50.02571,-125.16948 h 4e-5 c -1e-5,-1e-5 -4e-5,0 -4e-5,0 z M 186.25,66.310674 c 0.9625,-0.251527 2.5375,-0.251527 3.5,0 0.9625,0.251528 0.175,0.457323 -1.75,0.457323 -1.925,0 -2.7125,-0.205795 -1.75,-0.457323 z m 19.5,0.02705 c 0.6875,-0.277412 1.8125,-0.277412 2.5,0 0.6875,0.277413 0.125,0.504386 -1.25,0.504386 -1.375,0 -1.9375,-0.226973 -1.25,-0.504386 z"
         id="path3"
         sodipodi:nodetypes="sscsssssssssscsscsssscccssssssscccsscccssssssss" />
      <path
         style="fill:#030101"
         d="m 154.31423,325.92921 c -11.91722,-2.0551 -23.36577,-10.11752 -27.86165,-19.62102 -2.11403,-4.4687 -2.7696,-7.63579 -3.20096,-15.46391 L 122.70917,281 h -6.90424 C 104.95199,281 100.92618,277.8631 95.182354,264.93096 90.024404,253.31791 87.62946,241.37542 85.926535,218.77644 82.961217,179.42462 88.597839,144.1696 99.480709,134 c 2.429121,-2.26991 3.616041,-2.53085 12.896341,-2.83525 l 10.22099,-0.33524 1.06388,-11.16476 c 1.18361,-12.42126 4.22906,-22.492598 9.51729,-31.473728 4.26605,-7.24512 16.76669,-19.745766 24.01181,-24.011808 29.8236,-17.56061 71.24662,-10.525898 96.8845,16.453522 3.06653,3.226995 6.78366,7.696406 8.2603,9.932024 1.47663,2.235617 4.68242,5.472824 7.12397,7.193792 14.78826,10.423728 19.81916,32.901268 11.68839,52.222508 L 278,157.46213 l -0.0309,29.01893 c -0.0348,32.68002 -0.74795,40.47392 -4.64855,50.80111 -2.7004,7.14955 -2.73136,7.51266 -3.27338,38.38434 l -0.54719,31.16652 -3.04159,4.325 c -5.78151,8.22104 -15.93765,11.71627 -28.83262,9.92275 -9.40305,-1.30785 -17.19472,-4.72048 -23.00423,-10.07549 -5.89394,-5.43285 -8.584,-11.16923 -9.31245,-19.85825 l -0.58753,-7.00799 -8.36312,-0.31952 -8.36313,-0.31953 0.002,10.80718 c 0.001,5.94395 -0.49446,12.78011 -1.10165,15.19148 -2.99949,11.91205 -17.21467,19.08058 -32.58179,16.43055 z m 14.70395,-12.55316 C 175.40283,310.82142 176,308.74072 176,289.04966 V 272 h 20.41844 20.41845 l 0.33155,12.33184 c 0.3134,11.65641 0.4818,12.5286 3.07452,15.92405 7.16154,9.37883 28.69927,12.80188 35.80979,5.69136 C 257.89677,304.10323 258,302.39296 258,273.68715 v -30.31284 l 2.59295,-5.37493 c 1.42612,-2.95621 3.19264,-8.32793 3.92558,-11.93716 C 266.09915,218.27885 267.68801,170 266.36355,170 c -0.4946,0 -2.51744,1.09957 -4.49519,2.44348 -7.2408,4.92025 -14.80334,6.57452 -37.76058,8.25994 -24.83108,1.82299 -29.20762,1.37115 -40.60778,-4.19247 -8.96982,-4.37755 -13.56798,-8.24824 -18.59857,-15.6561 -5.31712,-7.8298 -7.59002,-14.74478 -8.92543,-27.1543 -1.69632,-15.76338 0.78734,-23.70609 10.00397,-31.99263 7.65572,-6.88315 10.64416,-7.524962 46.93234,-10.079416 C 230.539,90.387698 245.2081,89.125234 245.5103,88.82303 246.21112,88.122212 234.04965,78.272794 226.93233,73.776965 217.41198,67.763209 213.67715,66.718475 200,66.243256 185.50045,65.739463 177.86558,67.12924 167.26616,72.201805 157.86364,76.701569 145.6729,88.924495 141.13617,98.400779 134.94577,111.33123 135.0359,109.73018 135.02294,207 c -0.008,58.59792 0.34185,89.77342 1.03486,92.26889 3.07991,11.09055 21.15981,18.82881 32.96038,14.10716 z M 123,206 v -63 h -9.45785 -9.45784 l -2.41485,4.25 c -3.505248,6.16904 -5.143974,28.76186 -4.372065,60.27685 0.779543,31.82671 3.438025,49.45488 8.755845,58.0593 2.09436,3.38874 2.16445,3.41385 9.52832,3.41385 H 123 Z m 105.2947,-37.48369 c 16.14241,-1.32154 18.38649,-1.73925 24.16813,-4.49857 7.28778,-3.47814 14.73231,-11.01026 17.69748,-17.90572 2.59361,-6.03141 3.90718,-16.25702 3.15186,-24.53598 -0.54708,-5.99637 -1.08031,-7.42052 -3.98029,-10.63045 -3.64247,-4.03178 -10.27894,-7.31196 -18.25386,-9.02228 -4.9019,-1.05127 -25.75837,0.0196 -59.77666,3.06934 -15.0701,1.35102 -20.33197,4.67788 -23.34818,14.76212 -1.94447,6.50101 0.15809,21.86348 4.09804,29.94259 4.49558,9.21846 14.00643,16.93476 23.68325,19.21459 5.57009,1.3123 12.76624,1.22486 32.56023,-0.39564 z"
         id="path2" />
    </g>
  </g>
</svg>
